# xmcd CD database file
#
# Track frame offsets:
#	150
#	12937
#	27961
#	41785
#	73797
#	92949
#	108534
#	132971
#	154263
#	171275
#	181745
#	195749
#
# Disc length: 3095 seconds
#
# Revision: 0
# Processed by: cddbd v1.5.2PL0 Copyright (c) Steve Scherf et al.
# Submitted via: CDex 2.21
#
DISCID=a50c150c
DTITLE=Miles Davis - Platinum
DYEAR=2008
DGENRE=Jazz
TTITLE0=Deception
TTITLE1=Kelo
TTITLE2=Boplicity
TTITLE3=Love For Sale
TTITLE4=Dear Old Stockholm
TTITLE5=Woody 'N You (a.k.a. Would'n You)
TTITLE6=Well You Needn't
TTITLE7=How Deep Is The Ocean
TTITLE8=Ray's Idea
TTITLE9=Israel
TTITLE10=Chance It
TTITLE11=Somethin' Else
EXTD=YEAR: 2008
EXTT0=
EXTT1=
EXTT2=
EXTT3=
EXTT4=
EXTT5=
EXTT6=
EXTT7=
EXTT8=
EXTT9=
EXTT10=
EXTT11=
PLAYORDER=
